<?xml version="1.0" encoding="utf-8"?><!-- Generator: Adobe Illustrator 24.1.2, SVG Export Plug-In . SVG Version: 6.00 Build 0)  -->
<svg version="1.1" xmlns="http://www.w3.org/2000/svg" x="0px" y="0px" viewBox="0 0 64 64" enable-background="new 0 0 64 64" xml:space="preserve">
<g id="Base">
	<path fill="#4D4D4D" d="M54.37,25.66c-0.45-0.48-0.88-0.98-1.28-1.53c-0.75-1.04-1.21-2.36-2.13-3.25
		c-1.15-1.12-2.81-2.69-4.11-3.6c-1.35-0.95-2.36-1.28-3.67-2.24c-2.79,0.99-5.58,2.2-8.11,3.49c-3.61,1.85-7.93,3.54-10.93,6.29
		c-0.41,0.38-0.84,0.66-1.28,0.88c0.37,1.37,0.6,2.79,0.67,4.26c0.23,5.03-2.16,9.65-5.82,12.88c0.05,0.03,0.13,0.08,0.26,0.16
		c2.36,1.45,16.92,10.35,19.91,10.45C48.95,57.68,64.63,41.79,56.47,29L54.37,25.66z" />
    <path fill="#CCCCCC" d="M52.23,14.63c-0.07-0.29-0.45-0.34-0.6-0.08l-1.95,3.3c-2.44-2.03-7.84-6.21-7.84-6.21
		c-1.08-0.2-20.38,9.17-21.66,10.92c0.06-0.1,0.06-0.53-3.39-1.34c0,0-8.55-5.6-9.71-5.5s-3.05,6.12,2.34,16.24l0.01-0.01
		c-0.41,4.42,3.61,11.16,8.2,10.85c0,0,0.2,0.12,0.54,0.33c0.53-0.94,1.34-1.75,2.39-2.24c0.02-0.05,0.04-0.08,0.06-0.14
		c0.22-0.62,0.47-1.24,0.73-1.85c0.35-0.92,0.7-1.83,1-2.77c0.7-2.16,1.51-4.84,1.04-7.13c-0.09-0.43-0.12-0.84-0.12-1.24
		c-0.84-1.03-0.46-2.96,1.13-3.17c0.61-0.72,1.43-1.29,2.44-1.67C31,21.36,34.66,18,38.82,16.23c0.82-0.35,1.59-0.53,2.32-0.59
		c0.3-0.27,0.7-0.44,1.22-0.44c0.72,0,1.23,0.33,1.53,0.8c1.49,0.51,2.91,1.46,4.44,2.53c2.3,1.61,4,3.73,5.26,6.12
		c0.24,0.17,0.49,0.33,0.73,0.51C54.48,23.16,52.84,17.02,52.23,14.63z" />
    <g id="Layer_3">
		<path fill="none" stroke="#000000" stroke-miterlimit="10" d="M59.21,37.11c-0.39-7.66-9.94-19.35-16.74-22.21
			c0,0-18,8.74-19.89,11.1c2.33,3.96,0.12,14.67-4.95,16.79C32.69,53.11,51.35,63.86,59.21,37.11z" />
        <path fill="none" stroke="#000000" stroke-miterlimit="10" d="M22.58,26c-0.26-1.12-2.42-3.42-2.42-3.42
			c1.16-1.7,20.58-11.15,21.68-10.95c1.27,1.23,11.11,7.41,10.2,10.8" />
        <path fill="none" stroke="#000000" stroke-miterlimit="10" d="M20.16,22.58C7.1,15.11,5.95,42.97,17.63,42.79" />
        <path fill="none" stroke="#000000" stroke-width="0.5" stroke-miterlimit="10" d="M11.79,24.74c9.63-8.79,13.62,14.71,3.02,17.33" />
        <path fill="none" stroke="#000000" stroke-miterlimit="10" d="M16.79,21.21c-9.23-8.19-15.73-9.39-7.37,10.74" />
        <path fill="none" stroke="#000000" stroke-width="0.5" stroke-miterlimit="10" d="M7.21,17.84c0,0,1.66,6.32,3.52,8.16" />
        <path fill="none" stroke="#000000" stroke-miterlimit="10" d="M49.68,17.84l2-3.39c0.13-0.22,0.46-0.18,0.52,0.07
			c0.62,2.47,2.51,9.46,2.06,10.97" />
	</g>
    <g id="Layer_5">
		<path opacity="0.29" fill="none" stroke="#000000" stroke-width="0.25" stroke-miterlimit="10" d="M59.21,37.11
			c-7.2,8.56-21.45-0.74-28.39-7.47" />
	</g>
</g>
    <g id="Face">
	<polyline fill="none" stroke="#00E7FF" stroke-miterlimit="10" points="29.95,39.82 28.68,40.29 29.37,37.82 33.95,44.97 
		42.11,44.74 44.71,49.32 52.63,46.53 53.84,47.21 	" />
        <polygon fill="#00E7FF" points="25.47,24.84 36.16,34.42 28.61,33.05 	" />
</g>
</svg>
